REM DIRINDEX 1\2\4\18,1\2\4\19,1\2\5\20,1\2\5\21,1\2\6\22,1\2\6\23,1\2\7\24,1\2\8\25,1\2\9\26,1\2\10\27,1\2\10\28,1\3\11\29,1\3\11\30,1\3\11\31,1\3\11\32,1\3\12\33,1\3\12\34,1\3\12\35,1\3\12\36,1\3\13\37,1\3\13\38,1\3\13\39,1\3\13\40,1\3\14\41,1\3\14\42,1\3\15\43,1\3\15\44,1\3\16\45,1\3\16\46,1\3\17\47,1\3\17\48,1\3\17\49,1\3\17\50
REM DIRNAME folder01,folder02,folder03,folder04,folder05,folder06,folder07,folder08,folder09,folder10,folder11,folder12,folder13,folder14,folder15,folder16,folder17,folder18,folder19,folder20,folder21,folder22,folder23,folder24,folder25,folder26,folder27,folder28,folder29,folder30,folder31,folder32,folder33,folder34,folder35,folder36,folder37,folder38,folder39,folder40,folder41,folder42,folder43,folder44,folder45,folder46,folder47,folder48,folder49,folder50
TITLE ""
FILE "10.mp3" MP3
  TRACK 01 AUDIO
    TITLE "0:"
    INDEX 01 00:00:00
  TRACK 02 AUDIO
    TITLE "42:cjc135_5660"
    INDEX 01 00:00:15
  TRACK 03 AUDIO
    TITLE "0:"
    INDEX 01 00:01:34
  TRACK 04 AUDIO
    TITLE "41:cjc135_5661"
    INDEX 01 00:01:60
  TRACK 05 AUDIO
    TITLE "0:"
    INDEX 01 00:03:15
  TRACK 06 AUDIO
    TITLE "42:cjc135_5662"
    INDEX 01 00:04:01
  TRACK 07 AUDIO
    TITLE "0:"
    INDEX 01 00:05:28
  TRACK 08 AUDIO
    TITLE "41:cjc135_5663"
    INDEX 01 00:05:56
  TRACK 09 AUDIO
    TITLE "0:"
    INDEX 01 00:07:25
  TRACK 10 AUDIO
    TITLE "42:cjc135_5664"
    INDEX 01 00:08:15
  TRACK 11 AUDIO
    TITLE "0:"
    INDEX 01 00:09:14
  TRACK 12 AUDIO
    TITLE "41:cjc135_5665"
    INDEX 01 00:09:38
  TRACK 13 AUDIO
    TITLE "0:"
    INDEX 01 00:10:55
  TRACK 14 AUDIO
    TITLE "42:cjc135_5666"
    INDEX 01 00:11:44
  TRACK 15 AUDIO
    TITLE "0:"
    INDEX 01 00:12:52
  TRACK 16 AUDIO
    TITLE "41:cjc135_5667"
    INDEX 01 00:13:02
  TRACK 17 AUDIO
    TITLE "0:"
    INDEX 01 00:14:29
  TRACK 18 AUDIO
    TITLE "42:cjc135_5668"
    INDEX 01 00:15:17
  TRACK 19 AUDIO
    TITLE "0:"
    INDEX 01 00:17:41
  TRACK 20 AUDIO
    TITLE "41:cjc135_5669"
    INDEX 01 00:17:65
  TRACK 21 AUDIO
    TITLE "0:"
    INDEX 01 00:18:64
  TRACK 22 AUDIO
    TITLE "42:cjc135_5670"
    INDEX 01 00:19:56
  TRACK 23 AUDIO
    TITLE "0:"
    INDEX 01 00:20:71
  TRACK 24 AUDIO
    TITLE "41:cjc135_5671"
    INDEX 01 00:21:23
  TRACK 25 AUDIO
    TITLE "0:"
    INDEX 01 00:22:62
  TRACK 26 AUDIO
    TITLE "42:cjc135_5672"
    INDEX 01 00:23:50
  TRACK 27 AUDIO
    TITLE "0:"
    INDEX 01 00:24:74
  TRACK 28 AUDIO
    TITLE "41:cjc135_5673"
    INDEX 01 00:25:23
  TRACK 29 AUDIO
    TITLE "0:"
    INDEX 01 00:26:62
  TRACK 30 AUDIO
    TITLE "42:cjc135_5674"
    INDEX 01 00:27:49
  TRACK 31 AUDIO
    TITLE "0:"
    INDEX 01 00:29:17
  TRACK 32 AUDIO
    TITLE "41:cjc135_5675"
    INDEX 01 00:29:42
  TRACK 33 AUDIO
    TITLE "0:"
    INDEX 01 00:30:59
  TRACK 34 AUDIO
    TITLE "42:cjc135_5676"
    INDEX 01 00:31:47
  TRACK 35 AUDIO
    TITLE "0:"
    INDEX 01 00:33:05
  TRACK 36 AUDIO
    TITLE "41:cjc135_5677"
    INDEX 01 00:33:32
  TRACK 37 AUDIO
    TITLE "0:"
    INDEX 01 00:36:23
  TRACK 38 AUDIO
    TITLE "42:cjc135_5678"
    INDEX 01 00:37:12
  TRACK 39 AUDIO
    TITLE "0:"
    INDEX 01 00:38:31
  TRACK 40 AUDIO
    TITLE "41:cjc135_5679"
    INDEX 01 00:38:57
  TRACK 41 AUDIO
    TITLE "0:"
    INDEX 01 00:41:59
  TRACK 42 AUDIO
    TITLE "42:cjc135_5680"
    INDEX 01 00:42:45
  TRACK 43 AUDIO
    TITLE "0:"
    INDEX 01 00:43:64
  TRACK 44 AUDIO
    TITLE "41:cjc135_5681"
    INDEX 01 00:44:14
  TRACK 45 AUDIO
    TITLE "0:"
    INDEX 01 00:46:02
  TRACK 46 AUDIO
    TITLE "42:cjc135_5682"
    INDEX 01 00:46:62
  TRACK 47 AUDIO
    TITLE "0:"
    INDEX 01 00:48:06
  TRACK 48 AUDIO
    TITLE "41:cjc135_5683"
    INDEX 01 00:48:26
  TRACK 49 AUDIO
    TITLE "0:"
    INDEX 01 00:49:53
  TRACK 50 AUDIO
    TITLE "42:cjc135_5684"
    INDEX 01 00:50:41
  TRACK 51 AUDIO
    TITLE "0:"
    INDEX 01 00:51:50
  TRACK 52 AUDIO
    TITLE "41:cjc135_5685"
    INDEX 01 00:52:00
  TRACK 53 AUDIO
    TITLE "0:"
    INDEX 01 00:54:40
  TRACK 54 AUDIO
    TITLE "42:cjc135_5686"
    INDEX 01 00:55:32
  TRACK 55 AUDIO
    TITLE "0:"
    INDEX 01 00:56:47
  TRACK 56 AUDIO
    TITLE "41:cjc135_5687"
    INDEX 01 00:56:72
  TRACK 57 AUDIO
    TITLE "0:"
    INDEX 01 00:58:50
  TRACK 58 AUDIO
    TITLE "42:cjc135_5688"
    INDEX 01 00:59:39
  TRACK 59 AUDIO
    TITLE "0:"
    INDEX 01 01:01:05
  TRACK 60 AUDIO
    TITLE "41:cjc135_5689"
    INDEX 01 01:01:33
  TRACK 61 AUDIO
    TITLE "0:"
    INDEX 01 01:02:69
  TRACK 62 AUDIO
    TITLE "42:cjc135_5690"
    INDEX 01 01:03:57
  TRACK 63 AUDIO
    TITLE "0:"
    INDEX 01 01:05:05
  TRACK 64 AUDIO
    TITLE "41:cjc135_5691"
    INDEX 01 01:05:32
  TRACK 65 AUDIO
    TITLE "0:"
    INDEX 01 01:06:45
  TRACK 66 AUDIO
    TITLE "42:cjc135_5692"
    INDEX 01 01:07:33
  TRACK 67 AUDIO
    TITLE "0:"
    INDEX 01 01:08:56
  TRACK 68 AUDIO
    TITLE "41:cjc135_5693"
    INDEX 01 01:09:07
  TRACK 69 AUDIO
    TITLE "0:"
    INDEX 01 01:10:35
  TRACK 70 AUDIO
    TITLE "42:cjc135_5694"
    INDEX 01 01:11:25
  TRACK 71 AUDIO
    TITLE "0:"
    INDEX 01 01:12:38
  TRACK 72 AUDIO
    TITLE "41:cjc135_5695"
    INDEX 01 01:12:62
  TRACK 73 AUDIO
    TITLE "0:"
    INDEX 01 01:14:02
  TRACK 74 AUDIO
    TITLE "42:cjc135_5696"
    INDEX 01 01:14:63
  TRACK 75 AUDIO
    TITLE "0:"
    INDEX 01 01:15:68
  TRACK 76 AUDIO
    TITLE "41:cjc135_5697"
    INDEX 01 01:16:20
  TRACK 77 AUDIO
    TITLE "0:"
    INDEX 01 01:17:33
  TRACK 78 AUDIO
    TITLE "42:cjc135_5698"
    INDEX 01 01:18:19
  TRACK 79 AUDIO
    TITLE "0:"
    INDEX 01 01:19:44
  TRACK 80 AUDIO
    TITLE "41:cjc135_5699"
    INDEX 01 01:19:68
  TRACK 81 AUDIO
    TITLE "0:"
    INDEX 01 01:20:59
  TRACK 82 AUDIO
    TITLE "42:cjc135_5700"
    INDEX 01 01:21:47
  TRACK 83 AUDIO
    TITLE "0:"
    INDEX 01 01:22:50
  TRACK 84 AUDIO
    TITLE "41:cjc135_5701"
    INDEX 01 01:22:74
  TRACK 85 AUDIO
    TITLE "0:"
    INDEX 01 01:24:08
  TRACK 86 AUDIO
    TITLE "42:cjc135_5702"
    INDEX 01 01:24:69
  TRACK 87 AUDIO
    TITLE "0:"
    INDEX 01 01:26:17
  TRACK 88 AUDIO
    TITLE "41:cjc135_5703"
    INDEX 01 01:26:42
  TRACK 89 AUDIO
    TITLE "0:"
    INDEX 01 01:27:63
  TRACK 90 AUDIO
    TITLE "42:cjc135_5704"
    INDEX 01 01:28:49
  TRACK 91 AUDIO
    TITLE "0:"
    INDEX 01 01:30:11
  TRACK 92 AUDIO
    TITLE "41:cjc135_5705"
    INDEX 01 01:30:38
  TRACK 93 AUDIO
    TITLE "0:"
    INDEX 01 01:31:71
  TRACK 94 AUDIO
    TITLE "42:cjc135_5706"
    INDEX 01 01:32:57
  TRACK 95 AUDIO
    TITLE "0:"
    INDEX 01 01:34:61
  TRACK 96 AUDIO
    TITLE "41:cjc135_5707"
    INDEX 01 01:35:10
  TRACK 97 AUDIO
    TITLE "0:"
    INDEX 01 01:36:43
  TRACK 98 AUDIO
    TITLE "42:cjc135_5708"
    INDEX 01 01:37:32
  TRACK 99 AUDIO
    TITLE "0:"
    INDEX 01 01:38:71
  TRACK 100 AUDIO
    TITLE "41:cjc135_5709"
    INDEX 01 01:39:21
  TRACK 101 AUDIO
    TITLE "0:"
    INDEX 01 01:40:64
  TRACK 102 AUDIO
    TITLE "42:cjc135_5710"
    INDEX 01 01:41:52
  TRACK 103 AUDIO
    TITLE "0:"
    INDEX 01 01:43:11
  TRACK 104 AUDIO
    TITLE "41:cjc135_5711"
    INDEX 01 01:43:37
  TRACK 105 AUDIO
    TITLE "0:"
    INDEX 01 01:44:56
  TRACK 106 AUDIO
    TITLE "42:cjc135_5712"
    INDEX 01 01:45:42
  TRACK 107 AUDIO
    TITLE "0:"
    INDEX 01 01:48:14
  TRACK 108 AUDIO
    TITLE "41:cjc135_5713"
    INDEX 01 01:48:40
  TRACK 109 AUDIO
    TITLE "0:"
    INDEX 01 01:49:37
  TRACK 110 AUDIO
    TITLE "42:cjc135_5714"
    INDEX 01 01:50:25
  TRACK 111 AUDIO
    TITLE "0:"
    INDEX 01 01:51:13
  TRACK 112 AUDIO
    TITLE "41:cjc135_5715"
    INDEX 01 01:51:42
  TRACK 113 AUDIO
    TITLE "0:"
    INDEX 01 01:52:51
  TRACK 114 AUDIO
    TITLE "42:cjc135_5716"
    INDEX 01 01:53:39
  TRACK 115 AUDIO
    TITLE "0:"
    INDEX 01 01:54:64
  TRACK 116 AUDIO
    TITLE "41:cjc135_5717"
    INDEX 01 01:55:15
  TRACK 117 AUDIO
    TITLE "0:"
    INDEX 01 01:56:36
  TRACK 118 AUDIO
    TITLE "42:cjc135_5718"
    INDEX 01 01:57:21
  TRACK 119 AUDIO
    TITLE "0:"
    INDEX 01 01:58:30
  TRACK 120 AUDIO
    TITLE "41:cjc135_5719"
    INDEX 01 01:58:54
  TRACK 121 AUDIO
    TITLE "0:"
    INDEX 01 02:00:22
  TRACK 122 AUDIO
    TITLE "42:cjc135_5720"
    INDEX 01 02:01:07
  TRACK 123 AUDIO
    TITLE "0:"
    INDEX 01 02:02:30
  TRACK 124 AUDIO
    TITLE "41:cjc135_5721"
    INDEX 01 02:02:56
  TRACK 125 AUDIO
    TITLE "0:"
    INDEX 01 02:04:04
  TRACK 126 AUDIO
    TITLE "42:cjc135_5722"
    INDEX 01 02:04:66
  TRACK 127 AUDIO
    TITLE "0:"
    INDEX 01 02:05:64
  TRACK 128 AUDIO
    TITLE "41:cjc135_5723"
    INDEX 01 02:06:30
  TRACK 129 AUDIO
    TITLE "0:"
    INDEX 01 02:07:39
  TRACK 130 AUDIO
    TITLE "42:cjc135_5724"
    INDEX 01 02:08:27
  TRACK 131 AUDIO
    TITLE "0:"
    INDEX 01 02:10:53
  TRACK 132 AUDIO
    TITLE "41:cjc135_5725"
    INDEX 01 02:11:00
  TRACK 133 AUDIO
    TITLE "0:"
    INDEX 01 02:11:74
  TRACK 134 AUDIO
    TITLE "42:cjc135_5726"
    INDEX 01 02:12:70
  TRACK 135 AUDIO
    TITLE "0:"
    INDEX 01 02:14:14
  TRACK 136 AUDIO
    TITLE "41:cjc135_5727"
    INDEX 01 02:14:39
  TRACK 137 AUDIO
    TITLE "0:"
    INDEX 01 02:15:64
  TRACK 138 AUDIO
    TITLE "42:cjc135_5728"
    INDEX 01 02:16:50
  TRACK 139 AUDIO
    TITLE "0:"
    INDEX 01 02:17:57
  TRACK 140 AUDIO
    TITLE "41:cjc135_5729"
    INDEX 01 02:18:08
  TRACK 141 AUDIO
    TITLE "0:"
    INDEX 01 02:18:74
  TRACK 142 AUDIO
    TITLE "42:cjc135_5730"
    INDEX 01 02:19:62
  TRACK 143 AUDIO
    TITLE "0:"
    INDEX 01 02:21:39
  TRACK 144 AUDIO
    TITLE "41:cjc135_5731"
    INDEX 01 02:21:65
  TRACK 145 AUDIO
    TITLE "0:"
    INDEX 01 02:22:74
  TRACK 146 AUDIO
    TITLE "42:cjc135_5732"
    INDEX 01 02:23:62
  TRACK 147 AUDIO
    TITLE "0:"
    INDEX 01 02:26:17
  TRACK 148 AUDIO
    TITLE "41:cjc135_5733"
    INDEX 01 02:26:42
  TRACK 149 AUDIO
    TITLE "0:"
    INDEX 01 02:27:60
  TRACK 150 AUDIO
    TITLE "42:cjc135_5734"
    INDEX 01 02:28:47
  TRACK 151 AUDIO
    TITLE "0:"
    INDEX 01 02:31:32
  TRACK 152 AUDIO
    TITLE "41:cjc135_5735"
    INDEX 01 02:31:59
  TRACK 153 AUDIO
    TITLE "0:"
    INDEX 01 02:33:03
  TRACK 154 AUDIO
    TITLE "42:cjc135_5736"
    INDEX 01 02:33:64
  TRACK 155 AUDIO
    TITLE "0:"
    INDEX 01 02:36:29
  TRACK 156 AUDIO
    TITLE "41:cjc135_5737"
    INDEX 01 02:36:55
  TRACK 157 AUDIO
    TITLE "0:"
    INDEX 01 02:37:70
  TRACK 158 AUDIO
    TITLE "42:cjc135_5738"
    INDEX 01 02:38:59
  TRACK 159 AUDIO
    TITLE "0:"
    INDEX 01 02:39:65
  TRACK 160 AUDIO
    TITLE "41:cjc135_5739"
    INDEX 01 02:40:15
  TRACK 161 AUDIO
    TITLE "0:"
    INDEX 01 02:41:44
  TRACK 162 AUDIO
    TITLE "42:cjc135_5740"
    INDEX 01 02:42:32
  TRACK 163 AUDIO
    TITLE "0:"
    INDEX 01 02:43:64
  TRACK 164 AUDIO
    TITLE "41:cjc135_5741"
    INDEX 01 02:44:17
  TRACK 165 AUDIO
    TITLE "0:"
    INDEX 01 02:45:69
  TRACK 166 AUDIO
    TITLE "42:cjc135_5742"
    INDEX 01 02:46:55
  TRACK 167 AUDIO
    TITLE "0:"
    INDEX 01 02:47:64
  TRACK 168 AUDIO
    TITLE "41:cjc135_5743"
    INDEX 01 02:48:17
  TRACK 169 AUDIO
    TITLE "0:"
    INDEX 01 02:49:22
  TRACK 170 AUDIO
    TITLE "42:cjc135_5744"
    INDEX 01 02:50:10
  TRACK 171 AUDIO
    TITLE "0:"
    INDEX 01 02:51:35
  TRACK 172 AUDIO
    TITLE "41:cjc135_5745"
    INDEX 01 02:51:62
  TRACK 173 AUDIO
    TITLE "0:"
    INDEX 01 02:52:73
  TRACK 174 AUDIO
    TITLE "42:cjc135_5746"
    INDEX 01 02:53:59
  TRACK 175 AUDIO
    TITLE "0:"
    INDEX 01 02:55:01
  TRACK 176 AUDIO
    TITLE "41:cjc135_5747"
    INDEX 01 02:55:25
  TRACK 177 AUDIO
    TITLE "0:"
    INDEX 01 02:56:53
  TRACK 178 AUDIO
    TITLE "42:cjc135_5748"
    INDEX 01 02:57:39
  TRACK 179 AUDIO
    TITLE "0:"
    INDEX 01 02:58:60
  TRACK 180 AUDIO
    TITLE "41:cjc135_5749"
    INDEX 01 02:59:11
  TRACK 181 AUDIO
    TITLE "0:"
    INDEX 01 03:00:14
  TRACK 182 AUDIO
    TITLE "42:cjc135_5750"
    INDEX 01 03:01:02
  TRACK 183 AUDIO
    TITLE "0:"
    INDEX 01 03:02:40
  TRACK 184 AUDIO
    TITLE "41:cjc135_5751"
    INDEX 01 03:02:64
  TRACK 185 AUDIO
    TITLE "0:"
    INDEX 01 03:04:08
  TRACK 186 AUDIO
    TITLE "42:cjc135_5752"
    INDEX 01 03:04:71
  TRACK 187 AUDIO
    TITLE "0:"
    INDEX 01 03:06:28
  TRACK 188 AUDIO
    TITLE "41:cjc135_5753"
    INDEX 01 03:06:58
  TRACK 189 AUDIO
    TITLE "0:"
    INDEX 01 03:08:19
  TRACK 190 AUDIO
    TITLE "42:cjc135_5754"
    INDEX 01 03:09:03
  TRACK 191 AUDIO
    TITLE "0:"
    INDEX 01 03:11:16
  TRACK 192 AUDIO
    TITLE "41:cjc135_5755"
    INDEX 01 03:11:41
  TRACK 193 AUDIO
    TITLE "0:"
    INDEX 01 03:13:11
  TRACK 194 AUDIO
    TITLE "42:cjc135_5756"
    INDEX 01 03:14:08
  TRACK 195 AUDIO
    TITLE "0:"
    INDEX 01 03:15:64
  TRACK 196 AUDIO
    TITLE "41:cjc135_5757"
    INDEX 01 03:16:25
  TRACK 197 AUDIO
    TITLE "0:"
    INDEX 01 03:17:26
  TRACK 198 AUDIO
    TITLE "42:cjc135_5758"
    INDEX 01 03:18:12
  TRACK 199 AUDIO
    TITLE "0:"
    INDEX 01 03:19:35
  TRACK 200 AUDIO
    TITLE "41:cjc135_5759"
    INDEX 01 03:19:60
  TRACK 201 AUDIO
    TITLE "0:"
    INDEX 01 03:20:70
